# xmcd
#
# Track frame offsets:
#	150
#	15940
#	30881
#	46087
#	61244
#	78642
#	95488
#	116832
#	135351
#	153940
#	172145
#	190341
#	210651
#	230886
#	251382
#	271745
#	295180
#	316910
#	332712
#
# Disc length: 4644 seconds
#
# Revision: 1
# Processed by: cddbd v1.5.1PL0 Copyright (c) Steve Scherf et al.
# Submitted via: CDex 1.50Beta5
#
DISCID=fc122213
DTITLE=大滝詠一 - LONG VACATION〜20th Anniversary Edition,A
DYEAR=2001
DGENRE=
TTITLE0=君は天然色
TTITLE1=Velvet Motel
TTITLE2=カナリア諸島にて
TTITLE3=Pap-Pi-Doo-Bi-Doo-Ba物語
TTITLE4=我が心のピンボール
TTITLE5=雨のウェンズデイ
TTITLE6=スピーチ・バルーン
TTITLE7=恋するカレン
TTITLE8=FUN×4
TTITLE9=さらばシベリア鉄道
TTITLE10=君は天然色
TTITLE11=Velvet Motel
TTITLE12=カナリア諸島にて
TTITLE13=Pap-Pi-Doo-Bi-Doo-Ba物語
TTITLE14=我が心のピンボール
TTITLE15=雨のウェンズデイ
TTITLE16=スピーチ・バルーン
TTITLE17=恋するカレン
TTITLE18=FUN×4
EXTD=
EXTT0=
EXTT1=
EXTT2=
EXTT3=
EXTT4=
EXTT5=
EXTT6=
EXTT7=
EXTT8=
EXTT9=
EXTT10=
EXTT11=
EXTT12=
EXTT13=
EXTT14=
EXTT15=
EXTT16=
EXTT17=
EXTT18=
PLAYORDER=
